<svg width="184" height="28" viewBox="0 0 184 28" fill="none" xmlns="http://www.w3.org/2000/svg">
<path d="M34.7106 21.0367V21.4534H28.1862V21.0367C29.3549 20.8589 29.802 20.4067 29.802 19.4209V10.7725C29.802 9.78669 29.4108 9.27856 28.364 9.18709L28.0032 9.15661V8.73994L33.0592 7.42387V19.4209C33.0592 20.4067 33.5063 20.8589 34.7055 21.0367H34.7106Z" fill="white"/>
<path d="M51.1334 21.0367V21.4534H44.609V21.0367C45.8082 20.8589 46.2553 20.4067 46.2553 19.4209V12.3274C46.2553 10.3812 45.2391 9.5123 43.8011 9.5123C42.2767 9.5123 40.7472 10.62 40.7472 13.1353V19.4209C40.7472 20.4067 41.1943 20.8589 42.3935 21.0367V21.4534H35.8691V21.0367C37.0378 20.8589 37.485 20.4067 37.485 19.4209V10.7725C37.485 9.78669 37.0937 9.27856 36.0469 9.18709L35.6862 9.15661V8.73994L40.7421 7.42387V10.9554C41.4585 8.94827 43.0439 7.42387 45.3813 7.42387C47.9271 7.42387 49.5125 9.10071 49.5125 12.0631V19.426C49.5125 20.4117 49.9596 20.864 51.1283 21.0418L51.1334 21.0367Z" fill="white"/>
<path d="M59.2483 8.17083C56.855 8.17083 55.2696 10.742 55.2696 13.8568C55.2696 17.2359 57.2463 19.6902 59.9953 19.6902C61.85 19.6902 63.288 18.5825 64.0044 16.9971L64.3347 17.0886C63.8266 20.0205 61.7331 21.8752 58.5573 21.8752C54.7259 21.8752 51.794 18.9128 51.794 14.6648C51.794 10.4168 54.8784 7.42387 59.1568 7.42387C60.6812 7.42387 62.3581 7.75416 63.5573 8.37916L63.288 11.9717H62.8713C62.541 9.57836 61.0471 8.17083 59.2483 8.17083Z" fill="white"/>
<path d="M71.2353 21.0368V21.4535H64.7109V21.0368C65.9101 20.859 66.3573 20.4067 66.3573 19.421V4.82231C66.3573 3.83654 65.9406 3.3284 64.8887 3.23694L64.528 3.20645V2.78978L69.6144 1.47372V19.426C69.6144 20.4118 70.0615 20.8641 71.2302 21.0419L71.2353 21.0368Z" fill="white"/>
<path d="M100.6 14.4869C100.6 19.4564 97.4905 21.8802 94.0148 21.8802C92.9376 21.8802 91.713 21.6414 90.6611 20.9503V25.3508C90.6611 26.367 91.3776 26.8193 93.0849 26.9361V27.3528H85.7831V26.9361C86.9518 26.7583 87.3989 26.306 87.3989 25.3508V10.7775C87.3989 9.79173 87.0077 9.2836 85.9609 9.19214L85.6002 9.16165V8.74498L90.6561 7.42892V10.7826C91.3167 8.50616 92.8715 7.40351 94.9041 7.40351C98.3746 7.40351 100.59 10.1881 100.59 14.497L100.6 14.4869ZM97.1297 15.1729C97.1297 11.494 95.8136 9.30901 93.8065 9.30901C92.1601 9.30901 90.6967 10.5082 90.6662 13.4096V16.8192C90.6662 19.304 91.774 21.1282 93.7506 21.1282C96.1134 21.1282 97.1297 18.5824 97.1297 15.1729Z" fill="white"/>
<path d="M85.4527 20.2288C84.406 20.1374 83.9842 19.6292 83.9842 18.6434V12.3019C83.9842 9.30905 81.9517 7.42387 78.4761 7.42387C75.0004 7.42387 72.5513 9.48689 72.4598 12.4188H75.8389C75.2088 10.2338 76.1082 8.17083 78.1407 8.17083C79.6651 8.17083 80.7119 9.33953 80.7119 11.0113V13.4249C80.7119 13.3944 72.4395 12.805 72.4395 18.3233C72.4395 20.4524 74.0909 21.9514 76.4588 21.9514C78.5574 21.9514 80.1478 20.93 80.8084 18.3843L80.8338 18.491V21.9666L85.8033 20.6811V20.2644L85.4426 20.2339L85.4527 20.2288ZM80.7271 16.7634C80.7271 19.0144 79.3501 20.1526 77.9984 20.1526C76.6468 20.1526 75.8084 19.1008 75.8084 17.7237C75.8084 14.0042 79.6092 13.7857 80.7271 13.7857V16.7634Z" fill="white"/>
<path d="M31.2044 1.46857V1.88524C29.1719 2.00719 28.4199 3.26228 27.7034 5.14745L21.3619 21.9057H20.9452L15.498 7.60173L10.0814 21.9057H9.66469L3.32321 5.20842C2.66263 3.4452 1.88517 2.06816 0 1.88524V1.46857H8.3791V1.88524C6.37198 1.91572 6.46346 3.40963 6.94111 4.75619L11.2805 16.5449L15.0509 6.40253L14.6037 5.20334C13.9432 3.46553 13.1352 2.06308 11.2805 1.88015V1.46349H19.6292V1.88015C17.622 1.91064 17.7135 3.40455 18.1911 4.7511L22.5306 16.6008L26.9005 4.95944C27.4392 3.46553 27.8558 1.90556 25.2847 1.87507V1.4584H31.2095L31.2044 1.46857Z" fill="white"/>
<path d="M113.085 21.0368C115.478 21.0368 117.094 19.5988 117.094 17.5052C117.094 11.3416 105.722 14.1821 105.722 6.54991C105.722 3.31819 108.324 1.04175 112.516 1.04175C114.848 1.04175 117.247 1.61086 119.249 2.62713L118.619 6.99707H118.202C117.363 3.25721 114.909 1.88017 112.394 1.88017C110.417 1.88017 108.771 3.16575 108.771 5.11189C108.771 10.6201 120.382 8.25215 120.382 15.9758C120.382 19.5683 117.419 21.8701 112.958 21.8701C110.026 21.8701 107.333 21.0317 105.687 19.6546L106.317 14.9239H106.733C107.841 18.7553 110.173 21.0317 113.08 21.0317L113.085 21.0368Z" fill="#CEABFF"/>
<path d="M130.626 19.7512C130.057 20.9199 128.71 21.8447 127.094 21.8447C124.701 21.8447 123.324 20.3508 123.324 17.6831V8.61292H121.53V8.19625C123.116 6.91067 124.615 5.59461 126.169 3.557H126.586V7.86596H130.387V8.61292H126.586V17.7136C126.586 19.3904 127.303 20.3152 128.741 20.3152C129.34 20.3152 129.909 20.0459 130.326 19.5683L130.626 19.7461V19.7512Z" fill="#CEABFF"/>
<path d="M146.368 20.2593V20.676L141.398 21.9615V18.4605L141.337 18.2217C140.677 20.2847 139.03 21.8752 136.637 21.8752C134.122 21.8752 132.536 20.1983 132.536 17.2359V10.7725C132.536 9.78668 132.12 9.27347 131.068 9.18709L130.707 9.1566V8.73993L135.794 7.42387V16.9717C135.794 18.9178 136.779 19.7867 138.217 19.7867C139.742 19.7867 141.271 18.679 141.271 16.1637V10.7775C141.271 9.79176 140.88 9.27855 139.833 9.19217L139.472 9.16168V8.74501L144.528 7.42895V18.6536C144.528 19.6394 144.945 20.1526 145.997 20.239L146.358 20.2695L146.368 20.2593Z" fill="#CEABFF"/>
<path d="M161.779 20.2592V20.6759L156.81 21.9614V18.4604L156.779 18.313C156.149 20.7673 154.564 21.936 152.44 21.936C149 21.936 146.754 19.121 146.754 14.8425C146.754 9.87296 149.894 7.44917 153.37 7.44917C154.447 7.44917 155.677 7.68799 156.693 8.37905V3.83126C156.693 2.84549 156.302 2.33227 155.255 2.24589L154.894 2.2154V1.79873L159.95 0.48267V18.6179C159.95 19.6037 160.372 20.1169 161.419 20.2338L161.779 20.2643V20.2592ZM156.693 15.9197V12.5102C156.693 9.99491 155.585 8.2012 153.609 8.2012C151.276 8.2012 150.224 10.7469 150.224 14.1565C150.224 17.81 151.54 20.0204 153.578 20.0204C155.224 20.0204 156.662 18.8212 156.688 15.9197H156.693Z" fill="#CEABFF"/>
<path d="M168.812 21.0367V21.4534H162.288V21.0367C163.456 20.8588 163.903 20.4066 163.903 19.4208V10.7724C163.903 9.78663 163.512 9.27342 162.465 9.18704L162.105 9.15655V8.73988L167.161 7.42382V19.4259C167.161 20.4117 167.608 20.8639 168.807 21.0418L168.812 21.0367ZM163.273 2.15448C163.273 0.955289 164.229 0 165.55 0C166.871 0 167.796 0.955289 167.796 2.15448C167.796 3.40957 166.84 4.33945 165.55 4.33945C164.259 4.33945 163.273 3.40957 163.273 2.15448Z" fill="#CEABFF"/>
<path d="M169.681 14.6648C169.681 10.3558 172.435 7.42387 176.475 7.42387C180.514 7.42387 183.299 10.3558 183.299 14.6648C183.299 18.9737 180.545 21.9056 176.475 21.9056C172.405 21.9056 169.681 18.9432 169.681 14.6648ZM179.823 14.6648C179.823 10.5032 178.594 8.17082 176.47 8.17082C174.346 8.17082 173.146 10.5032 173.146 14.6648C173.146 18.8264 174.376 21.1282 176.47 21.1282C178.563 21.1282 179.823 18.8213 179.823 14.6648Z" fill="#CEABFF"/>
</svg>
